<?xml version="1.0" encoding="UTF-8"?>
<svg version="1.1" xmlns="http://www.w3.org/2000/svg" width="1024" height="1024">
<path d="M0 0 C2.09979138 -0.00115429 4.19958256 -0.00274388 6.29937333 -0.00472724 C12.02994865 -0.00887833 17.76050719 -0.00684904 23.49108255 -0.00374103 C29.68686113 -0.00146983 35.8826369 -0.00497511 42.07841492 -0.00772095 C53.50169565 -0.01190336 64.92496896 -0.01155117 76.34824966 -0.00880948 C86.90517306 -0.00628835 97.46209453 -0.00563981 108.01901817 -0.00683212 C109.07170813 -0.0069467 109.07170813 -0.0069467 110.14566456 -0.00706359 C112.99490614 -0.00737496 115.84414772 -0.00769337 118.6933893 -0.00802336 C145.39432813 -0.01107887 172.09526358 -0.00831462 198.79620188 -0.00292646 C222.48329228 0.00181719 246.1703773 0.00139542 269.85746765 -0.00338745 C296.50679344 -0.00875054 323.15611626 -0.01086057 349.80544251 -0.00777519 C352.650255 -0.0074545 355.4950675 -0.00714166 358.33987999 -0.00683212 C359.04027854 -0.00675305 359.74067709 -0.00667397 360.46229984 -0.00659249 C371.00674109 -0.00545835 381.55118017 -0.00677909 392.09562111 -0.00931168 C404.09584387 -0.01217965 416.09605891 -0.01134211 428.09628145 -0.00603093 C434.21302997 -0.00341249 440.32976761 -0.00235722 446.44651604 -0.00568008 C452.05674493 -0.00868156 457.66695296 -0.00698672 463.27717998 -0.00170253 C465.29586873 -0.00059465 467.31455929 -0.00113287 469.33324686 -0.00357832 C486.31125535 -0.02255171 503.2558239 0.2258306 520.06767273 2.81448364 C521.20059753 2.98673462 522.33352234 3.1589856 523.5007782 3.3364563 C563.42382096 9.70969639 601.13502124 25.49189756 633.23564148 50.11526489 C635.49556805 51.8344114 637.7866628 53.46300692 640.13017273 55.06448364 C641.03767273 55.74510864 641.94517273 56.42573364 642.88017273 57.12698364 C642.88017273 57.78698364 642.88017273 58.44698364 642.88017273 59.12698364 C643.74642273 59.52917114 643.74642273 59.52917114 644.63017273 59.93948364 C646.93567315 61.15627553 648.90073465 62.43032243 650.88017273 64.12698364 C650.88017273 64.78698364 650.88017273 65.44698364 650.88017273 66.12698364 C651.43189148 66.35385864 651.98361023 66.58073364 652.55204773 66.81448364 C655.5670969 68.51424291 657.69247642 70.6750318 660.13017273 73.12698364 C661.02220398 74.01385864 661.91423523 74.90073364 662.83329773 75.81448364 C664.88017273 78.12698364 664.88017273 78.12698364 664.88017273 80.12698364 C665.54017273 80.12698364 666.20017273 80.12698364 666.88017273 80.12698364 C671.88017273 85.60317412 671.88017273 85.60317412 671.88017273 88.12698364 C672.54017273 88.12698364 673.20017273 88.12698364 673.88017273 88.12698364 C675.28129578 89.69656372 675.28129578 89.69656372 676.89189148 91.89651489 C677.48147644 92.69742554 678.0710614 93.49833618 678.67851257 94.32351685 C679.30193542 95.18678589 679.92535828 96.05005493 680.56767273 96.93948364 C681.20398621 97.81370972 681.84029968 98.68793579 682.49589539 99.58865356 C686.86481938 105.62883945 691.07932456 111.71009034 694.88017273 118.12698364 C695.82570007 119.69899536 695.82570007 119.69899536 696.79032898 121.30276489 C710.60298278 144.62082884 720.00219894 169.84294466 725.63017273 196.31448364 C725.82876892 197.23866089 726.02736511 198.16283813 726.23197937 199.11502075 C729.49161567 215.15354816 730.2548492 230.92836034 730.19267273 247.25198364 C730.18993851 248.74233124 730.18993851 248.74233124 730.18714905 250.26278687 C730.14237994 264.75427057 729.69082539 278.87177385 726.88017273 293.12698364 C726.63073914 294.49427612 726.63073914 294.49427612 726.37626648 295.88919067 C717.78130847 342.61233738 694.90533005 389.42536256 659.88017273 422.12698364 C659.05517273 422.95198364 658.23017273 423.77698364 657.38017273 424.62698364 C656.55517273 425.45198364 655.73017273 426.27698364 654.88017273 427.12698364 C654.3207196 427.70963989 653.76126648 428.29229614 653.18486023 428.89260864 C644.85199386 437.46162912 635.56651033 444.45786126 625.81767273 451.31448364 C624.9910614 451.89665649 624.16445007 452.47882935 623.31278992 453.0786438 C614.7549896 459.03049741 606.03859275 464.26559681 596.56767273 468.62698364 C595.7408197 469.0115271 594.91396667 469.39607056 594.0620575 469.79226685 C592.41570402 470.55755458 590.76851379 471.32104533 589.1204071 472.08255005 C587.20255276 472.97668484 585.29773377 473.89868874 583.39579773 474.82620239 C560.17881024 486.05167477 534.36201923 491.31704661 508.88017273 494.12698364 C507.81694725 494.25186383 507.81694725 494.25186383 506.73224247 494.37926686 C499.20734373 495.21045483 491.67917766 495.4699367 484.11531067 495.68139648 C483.38991691 495.70236802 482.66452316 495.72333955 481.91714777 495.74494658 C462.06256854 496.30486193 442.20497193 496.2698714 422.34416986 496.25770831 C416.76400656 496.25540766 411.18384615 496.25895656 405.60368347 496.26168823 C394.72225271 496.26609568 383.84082891 496.26519212 372.9593979 496.26227559 C364.10369537 496.26000183 355.24799476 496.25971751 346.39229202 496.26079941 C345.12392092 496.26095264 343.85554982 496.26110587 342.54874323 496.26126375 C339.97076479 496.26158353 337.39278635 496.26190774 334.81480791 496.26223634 C311.42133493 496.26499566 288.02786638 496.26215188 264.63439427 496.25689374 C243.36101242 496.25214846 222.08763656 496.25257528 200.81425476 496.25735474 C176.80998169 496.26272996 152.80571235 496.26480293 128.80143845 496.26174247 C126.23443294 496.26142398 123.66742742 496.26110961 121.10042191 496.26079941 C119.83793533 496.26064513 118.57544876 496.26049086 117.27470502 496.26033191 C108.44474652 496.25947413 99.61479017 496.26091355 90.784832 496.26327896 C80.00266016 496.26610431 69.22049558 496.26528161 58.43832456 496.25999822 C52.95374821 496.2573979 47.46918391 496.25629263 41.9846077 496.25964737 C-92.13847535 496.33468791 -92.13847535 496.33468791 -145.06513977 458.51370239 C-147.27382165 456.98025206 -147.27382165 456.98025206 -150.37763977 455.31448364 C-154.45820051 453.00852764 -158.1457207 450.27616287 -161.86982727 447.43948364 C-162.5614093 446.91564087 -163.25299133 446.3917981 -163.9655304 445.8520813 C-177.48208276 435.56434392 -177.48208276 435.56434392 -181.11982727 432.12698364 C-181.11982727 431.46698364 -181.11982727 430.80698364 -181.11982727 430.12698364 C-181.9164679 429.81760864 -181.9164679 429.81760864 -182.72920227 429.50198364 C-186.12756163 427.54737172 -188.63038655 424.90574648 -191.36982727 422.12698364 C-191.92412415 421.58042114 -192.47842102 421.03385864 -193.04951477 420.47073364 C-197.11982727 416.38037034 -197.11982727 416.38037034 -197.11982727 414.12698364 C-197.77982727 414.12698364 -198.43982727 414.12698364 -199.11982727 414.12698364 C-202.34942623 410.65840802 -205.203229 406.86050754 -208.11982727 403.12698364 C-209.21230774 401.73866333 -209.21230774 401.73866333 -210.32685852 400.32229614 C-227.82304737 377.5614883 -241.06506352 352.36179487 -250.11982727 325.12698364 C-250.56213684 323.81383179 -250.56213684 323.81383179 -251.01338196 322.47415161 C-258.87523432 298.66694276 -261.34370479 273.46964984 -261.36982727 248.50198364 C-261.37116669 247.74018799 -261.3725061 246.97839233 -261.37388611 246.19351196 C-261.36852264 232.01841771 -260.33796588 218.14123043 -258.11982727 204.12698364 C-257.94362854 203.00839966 -257.94362854 203.00839966 -257.76387024 201.86721802 C-255.07100279 185.51402586 -249.94429996 169.60483028 -244.11982727 154.12698364 C-243.74342102 153.11635864 -243.36701477 152.10573364 -242.97920227 151.06448364 C-237.63598039 137.51828733 -230.32017605 124.76307103 -222.61982727 112.43948364 C-222.10347717 111.60731323 -221.58712708 110.77514282 -221.05513 109.91775513 C-220.5711676 109.15793335 -220.0872052 108.39811157 -219.58857727 107.61526489 C-219.15996399 106.94019897 -218.73135071 106.26513306 -218.28974915 105.5696106 C-217.90367493 105.0935437 -217.51760071 104.61747681 -217.11982727 104.12698364 C-216.45982727 104.12698364 -215.79982727 104.12698364 -215.11982727 104.12698364 C-214.83107727 103.36385864 -214.54232727 102.60073364 -214.24482727 101.81448364 C-213.11982727 99.12698364 -213.11982727 99.12698364 -211.11982727 96.12698364 C-210.45982727 96.12698364 -209.79982727 96.12698364 -209.11982727 96.12698364 C-208.9058429 95.43088989 -208.69185852 94.73479614 -208.47138977 94.01760864 C-206.75761611 90.35231237 -204.2716713 87.75196445 -201.49482727 84.87698364 C-200.40288672 83.72408999 -199.31174247 82.57044162 -198.22138977 81.41604614 C-197.68932922 80.85562622 -197.15726868 80.2952063 -196.60908508 79.71780396 C-194.63778203 77.6120645 -192.75363929 75.43600474 -190.86982727 73.25198364 C-187.25221758 69.15502194 -183.30802597 65.62706045 -179.11982727 62.12698364 C-177.99437864 61.14833266 -176.86936826 60.16917743 -175.74482727 59.18948364 C-125.39681866 16.32563848 -65.1619799 -0.0786519 0 0 Z " fill="#000000" transform="translate(277.1198272705078,263.8730163574219)"/>
</svg>
